<mxfile host="app.diagrams.net" modified="2024-03-24T02:33:18.658Z" agent="Mozilla/5.0 (Macintosh; Intel Mac OS X 10_15_7) AppleWebKit/537.36 (KHTML, like Gecko) Chrome/123.0.0.0 Safari/537.36" etag="4ED0y8W99uXH_5wounli" version="24.1.0" type="device">
  <diagram name="PÃ¡gina-1" id="7u-ODl-eIWugTQizxy9m">
    <mxGraphModel dx="538" dy="334" grid="1" gridSize="10" guides="1" tooltips="1" connect="1" arrows="1" fold="1" page="1" pageScale="1" pageWidth="827" pageHeight="1169" math="0" shadow="0">
      <root>
        <mxCell id="0" />
        <mxCell id="1" parent="0" />
        <mxCell id="4-x5xr8ZuxUIwQ3ZzC3w-1" value="&lt;font style=&quot;font-size: 8px;&quot;&gt;Component&lt;/font&gt;&lt;font style=&quot;font-size: 8px;&quot;&gt;e&lt;/font&gt;&lt;div&gt;Reservas API&lt;/div&gt;" style="rounded=0;whiteSpace=wrap;html=1;" vertex="1" parent="1">
          <mxGeometry x="170" y="160" width="120" height="60" as="geometry" />
        </mxCell>
        <mxCell id="4-x5xr8ZuxUIwQ3ZzC3w-2" value="&lt;font style=&quot;font-size: 8px;&quot;&gt;Component&lt;/font&gt;&lt;font style=&quot;font-size: 8px;&quot;&gt;e&lt;/font&gt;&lt;div&gt;H2 Database&lt;/div&gt;" style="rounded=0;whiteSpace=wrap;html=1;" vertex="1" parent="1">
          <mxGeometry x="400" y="160" width="120" height="60" as="geometry" />
        </mxCell>
        <mxCell id="4-x5xr8ZuxUIwQ3ZzC3w-11" value="" style="endArrow=none;html=1;rounded=0;exitX=1;exitY=0.5;exitDx=0;exitDy=0;" edge="1" parent="1" source="4-x5xr8ZuxUIwQ3ZzC3w-1">
          <mxGeometry width="50" height="50" relative="1" as="geometry">
            <mxPoint x="350" y="300" as="sourcePoint" />
            <mxPoint x="320" y="190" as="targetPoint" />
          </mxGeometry>
        </mxCell>
        <mxCell id="4-x5xr8ZuxUIwQ3ZzC3w-12" value="" style="endArrow=none;html=1;rounded=0;entryX=0;entryY=0.5;entryDx=0;entryDy=0;" edge="1" parent="1" target="4-x5xr8ZuxUIwQ3ZzC3w-2">
          <mxGeometry width="50" height="50" relative="1" as="geometry">
            <mxPoint x="370" y="190" as="sourcePoint" />
            <mxPoint x="400" y="250" as="targetPoint" />
          </mxGeometry>
        </mxCell>
        <mxCell id="4-x5xr8ZuxUIwQ3ZzC3w-14" value="" style="ellipse;whiteSpace=wrap;html=1;aspect=fixed;" vertex="1" parent="1">
          <mxGeometry x="320" y="180" width="20" height="20" as="geometry" />
        </mxCell>
        <mxCell id="4-x5xr8ZuxUIwQ3ZzC3w-15" value="" style="ellipse;whiteSpace=wrap;html=1;aspect=fixed;strokeColor=#FFFFFF;" vertex="1" parent="1">
          <mxGeometry x="327" y="177.5" width="25" height="25" as="geometry" />
        </mxCell>
        <mxCell id="4-x5xr8ZuxUIwQ3ZzC3w-10" value="" style="endArrow=none;dashed=1;html=1;rounded=0;exitX=1;exitY=0.5;exitDx=0;exitDy=0;entryX=0;entryY=0.5;entryDx=0;entryDy=0;" edge="1" parent="1" source="4-x5xr8ZuxUIwQ3ZzC3w-1" target="4-x5xr8ZuxUIwQ3ZzC3w-2">
          <mxGeometry width="50" height="50" relative="1" as="geometry">
            <mxPoint x="350" y="300" as="sourcePoint" />
            <mxPoint x="400" y="250" as="targetPoint" />
          </mxGeometry>
        </mxCell>
        <mxCell id="4-x5xr8ZuxUIwQ3ZzC3w-16" value="" style="endArrow=none;html=1;rounded=0;" edge="1" parent="1">
          <mxGeometry width="50" height="50" relative="1" as="geometry">
            <mxPoint x="360" y="200" as="sourcePoint" />
            <mxPoint x="367" y="190" as="targetPoint" />
          </mxGeometry>
        </mxCell>
        <mxCell id="4-x5xr8ZuxUIwQ3ZzC3w-13" value="" style="ellipse;whiteSpace=wrap;html=1;aspect=fixed;fillColor=default;" vertex="1" parent="1">
          <mxGeometry x="367" y="180" width="20" height="20" as="geometry" />
        </mxCell>
        <mxCell id="4-x5xr8ZuxUIwQ3ZzC3w-17" value="" style="endArrow=none;html=1;rounded=0;" edge="1" parent="1">
          <mxGeometry width="50" height="50" relative="1" as="geometry">
            <mxPoint x="360" y="180" as="sourcePoint" />
            <mxPoint x="367" y="190" as="targetPoint" />
          </mxGeometry>
        </mxCell>
      </root>
    </mxGraphModel>
  </diagram>
</mxfile>
